<svg version="1.1" xmlns="http://www.w3.org/2000/svg" viewBox="0 0 1106.76806640625 545.13671875">
  <!-- svg-source:excalidraw -->
  
  <defs>
    <style>
      @font-face {
        font-family: "Virgil";
        src: url("https://excalidraw.com/FG_Virgil.woff2");
      }
      @font-face {
        font-family: "Cascadia";
        src: url("https://excalidraw.com/Cascadia.woff2");
      }
    </style>
  </defs>
  <rect x="0" y="0" width="1106.76806640625" height="545.13671875" fill="#ffffff"></rect><g transform="translate(122.4888916015625 491.30078125) rotate(0 24 12.5)"><text x="0" y="18" font-family="Virgil, Segoe UI Emoji" font-size="20px" fill="#000000" text-anchor="start" style="white-space: pre;" direction="ltr">team</text></g><g transform="translate(116.9224853515625 289.89453125) rotate(0 48 12.5)"><text x="0" y="18" font-family="Virgil, Segoe UI Emoji" font-size="20px" fill="#000000" text-anchor="start" style="white-space: pre;" direction="ltr">powers []</text></g><g transform="translate(544.3599853515625 74.453125) rotate(0 31 12.5)"><text x="0" y="18" font-family="Virgil, Segoe UI Emoji" font-size="20px" fill="#000000" text-anchor="start" style="white-space: pre;" direction="ltr">gender</text></g><g transform="translate(690.6553955078125 302.1493225097656) rotate(0 38 15.5)"><text x="0" y="23" font-family="Virgil, Segoe UI Emoji" font-size="20px" fill="#000000" text-anchor="start" style="white-space: pre;" direction="ltr">sideKick</text></g><g><g transform="translate(829.2293701171875 319.4928283691406) rotate(0 -27.942100185528375 0.3669408634677467)"><path d="M1.118291425332427 0.24539222158491603 C-8.566913839553793 0.33031831420958035, -47.29459556775788 0.11868583597242832, -57.00249179638922 0.48810098804533486 M0.24625569429248584 -0.6713808074221015 C-9.177791880307097 -0.48358688857406373, -45.66831839396308 1.2041420850530267, -54.853374994136395 1.4052625343576073" stroke="#000000" stroke-width="1" fill="none"></path></g><g transform="translate(829.2293701171875 319.4928283691406) rotate(0 -27.942100185528375 0.3669408634677467)"><path d="M-28.509042988261974 -10.874745710609373 C-41.065896543109744 -6.726554429399833, -47.953158875071686 -0.5457860859450641, -52.90720330249518 1.0589897472783922 M-28.611647825418807 -9.712840108057376 C-37.75123368090556 -5.220226116765774, -47.62581391501571 -1.8001246810416323, -53.859089361280205 0.5670461355149745" stroke="#000000" stroke-width="1" fill="none"></path></g><g transform="translate(829.2293701171875 319.4928283691406) rotate(0 -27.942100185528375 0.3669408634677467)"><path d="M-27.831848112934857 8.25112023574554 C-40.65100990327025 4.900728522490573, -47.804000106650506 3.5766030279611902, -52.90720330249518 1.0589897472783922 M-27.93445295009169 9.413025838297537 C-37.22925118891046 7.153749685790929, -47.34309435768539 3.816400672529653, -53.859089361280205 0.5670461355149745" stroke="#000000" stroke-width="1" fill="none"></path></g></g><g transform="translate(281.0552978515625 185.1796875) rotate(0 155.5 119)"><path d="M-0.2771792710460201 -1.4040422624357922 C119.99746509098628 -0.9264535663169647, 239.76982514154244 -2.296844548732021, 310.1535131261221 0.5803094394889607 M0.6430409886882192 -0.4370622309643037 C93.22218704520176 -1.4213874324053328, 187.2968354751902 -1.5535690384157461, 310.78030390031876 -0.6755733122523792 M309.69061849526184 0.9916935844117454 C311.94656508088036 76.24924443140434, 311.65351465719544 151.6307711397548, 312.33341509820616 239.23022630884057 M311.2547797832146 -0.0684044482586231 C310.54651189327404 69.03100452076816, 310.39152264323695 138.1387026431309, 310.3168810877054 238.32252302679828 M309.5970711287826 238.15588146510834 C203.38565144885754 238.54613178987262, 95.31263476946808 238.2046974200888, 0.04950932433633655 237.04103023930176 M310.2896415001028 237.72808346201336 C241.39873161815242 236.08813035893743, 172.03190615445232 236.11093740015144, 0.6214566538735515 238.07602553021107 M0.5456854729678459 238.1482352308917 C-0.9915685904052238 144.64656783411468, -2.4598388813951235 52.897108887904544, 1.3066807036846704 -0.8469076372713513 M0.28777238278589506 237.5631870579421 C0.3016351432937645 162.619030013394, 0.009272066472163165 86.89927582484299, -0.4984991954206083 0.25846505181689594" stroke="#000000" stroke-width="1" fill="none"></path></g><g><g transform="translate(143.3365478515625 220.703125) rotate(0 57.54180332333317 17.88208776383661)"><path d="M-0.12772683799266815 0.09780325591564187 C19.26921984652678 5.932956485946974, 97.22380050321419 29.58281461099784, 116.73752880394458 35.38336395919323 M-1.6539221572782845 -0.8964539800677449 C17.576701029051716 5.067118147055929, 96.24418080469904 30.560347585619112, 115.9264906498883 36.66062950774096" stroke="#000000" stroke-width="1" fill="none"></path></g><g transform="translate(143.3365478515625 220.703125) rotate(0 57.54180332333317 17.88208776383661)"><path d="M86.11512399169746 38.335338699214496 C95.00354027725334 38.32040638881922, 104.08093931620809 38.919733587460335, 116.47260659963824 38.22363988741301 M85.25475956204477 37.68395493417267 C95.27231413487385 37.2972244021949, 103.7437862005902 37.282963081128095, 116.06541986049153 36.912554536601526" stroke="#000000" stroke-width="1" fill="none"></path></g><g transform="translate(143.3365478515625 220.703125) rotate(0 57.54180332333317 17.88208776383661)"><path d="M92.33088909803112 18.77813372179699 C99.23095298373325 25.203697396504985, 106.25929983138148 32.25013658043884, 116.47260659963824 38.22363988741301 M91.47052466837843 18.126749956755162 C99.78097466212748 23.692158649186, 106.3647073194069 29.61745680682767, 116.06541986049153 36.912554536601526" stroke="#000000" stroke-width="1" fill="none"></path></g></g><g><g transform="translate(842.5858154296875 262.7275695800781) rotate(0 1.6977424982748062 47.36781886302866)"><path d="M0.4690498296171426 -0.09567455090582366 C0.7623173935959735 15.81237363778055, 1.2598442578067381 79.8895054217428, 1.7981477562338113 95.9271453615278 M-0.7438377391733229 -1.1915076354704799 C-0.06376051440214103 14.335676660779862, 3.421971016780784 78.29028785789384, 4.139322735723108 94.20458028936758" stroke="#000000" stroke-width="1" fill="none"></path></g></g><g><g transform="translate(226.0552978515625 300.1796875) rotate(0 22.317914786431942 -0.21295475922525497)"><path d="M0.8590641852468253 0.6872860495001076 C8.323236997549731 0.43977538980543607, 37.43861620786289 -0.8236969169229269, 44.78489541970193 -1.1131955679506063 M-0.14906584683805701 0.002507280148565716 C7.225776403111716 -0.1705787276849151, 36.7802708480383 -0.1125610100850464, 44.248920051418246 -0.16019798990339051" stroke="#000000" stroke-width="1" fill="none"></path></g></g><g transform="translate(23.3677978515625 207.1171875) rotate(0 54 25)"><text x="0" y="18" font-family="Virgil, Segoe UI Emoji" font-size="20px" fill="#000000" text-anchor="start" style="white-space: pre;" direction="ltr">weapons []</text><text x="0" y="43" font-family="Virgil, Segoe UI Emoji" font-size="20px" fill="#000000" text-anchor="start" style="white-space: pre;" direction="ltr"></text></g><g><g transform="translate(559.0552978515625 114.1796875) rotate(0 -18.30252923765221 29.241169290775435)"><path d="M0.9507656279951335 -0.7923710469156504 C-5.251271424318353 8.710410062099495, -30.456385602181157 47.977263780062394, -36.7428056653589 57.827727460488674 M-0.009221146646887002 1.4060302081145348 C-6.387848940237114 11.027139147563528, -31.32210691227888 49.543904052817574, -37.55582410329953 59.27470962846652" stroke="#000000" stroke-width="1" fill="none"></path></g></g><g transform="translate(861.76806640625 255.34014892578125) rotate(0 117.5 15.5)"><text x="0" y="23" font-family="Virgil, Segoe UI Emoji" font-size="20px" fill="#000000" text-anchor="start" style="white-space: pre;" direction="ltr">side_chick_stage_name</text></g><g><g transform="translate(544.0552978515625 501.1796875) rotate(0 -6.498644619025299 -28.244469260796905)"><path d="M-0.3960927609354258 1.0063368860632182 C-2.684261155501008 -8.770237189158797, -11.504987800493836 -47.666117637977, -14.112172842398286 -57.495275407657026 M1.59681981023401 0.489059805907309 C-0.7381582802906634 -8.618347910605372, -12.046225264705718 -46.609752609692514, -14.59410904828459 -56.21786974545568" stroke="#000000" stroke-width="1" fill="none"></path></g></g><g transform="translate(855.5078125 319.4189453125) rotate(0 97 15.5)"><text x="0" y="23" font-family="Virgil, Segoe UI Emoji" font-size="20px" fill="#000000" text-anchor="start" style="white-space: pre;" direction="ltr">sideKick_real_name</text></g><g><g transform="translate(677.8003306981176 317.41811465901503) rotate(0 -35.88297149542723 0.8326777105133232)"><path d="M0.5014415379613637 1.084478932991624 C-11.34222559662536 0.99565501937412, -59.31424026200549 0.14546134368294295, -71.36269064549359 0.16442971216993107 M-0.6944403839483857 0.6082264274731277 C-12.66259335814044 0.6234389249026056, -60.26053179418669 1.7069114248152955, -72.26738452881575 1.4659878672520974" stroke="#000000" stroke-width="1" fill="none"></path></g><g transform="translate(677.8003306981176 317.41811465901503) rotate(0 -35.88297149542723 0.8326777105133232)"><path d="M-42.311633235185845 -8.77299504959938 C-52.546744799196176 -6.513350444003745, -58.562811052727945 -3.945995482220619, -70.31961418099702 2.2884474252771 M-44.17127234429817 -9.412431010510595 C-54.86629276437029 -4.7564231939034585, -64.09166041706152 -2.2411942119358015, -71.98492775361986 1.9369833483781078" stroke="#000000" stroke-width="1" fill="none"></path></g><g transform="translate(677.8003306981176 317.41811465901503) rotate(0 -35.88297149542723 0.8326777105133232)"><path d="M-42.22712685821266 11.748039550490606 C-52.60472966067172 8.365929028362475, -58.64403032397986 5.291175737358191, -70.31961418099702 2.2884474252771 M-44.08676596732498 11.108603589579392 C-54.79097941616933 8.63786484384284, -64.04569328328843 4.026830658153064, -71.98492775361986 1.9369833483781078" stroke="#000000" stroke-width="1" fill="none"></path></g></g><g><g transform="translate(97.0552978515625 93.1796875) rotate(0 89.34937209066007 69.26018825057895)"><path d="M0.2726582642644644 -0.11292569003999242 C29.756716076160473 22.90837900874515, 147.63156768841048 115.33722059565285, 177.36401607953013 138.82017499841749 M-1.0433348763361574 -1.217815622650087 C28.796831997993095 21.84404179119816, 149.85952185587337 116.39283819659303, 179.74207905765624 139.73819212380798" stroke="#000000" stroke-width="1" fill="none"></path></g></g><g transform="translate(347.8834228515625 10) rotate(0 75 13)"><text x="0" y="18" font-family="Virgil, Segoe UI Emoji" font-size="20px" fill="#000000" text-anchor="start" style="white-space: pre;" direction="ltr">sworn_villan []</text></g><g><g transform="translate(400.874611225311 45.33984375) rotate(0 -5.79047694288289 61.89227748183533)"><path d="M0.4297400224953889 0.7806258749216795 C-1.567385223533021 21.156469674035904, -10.050842450684838 101.82703717462718, -12.0106939082611 122.24592334739863 M-0.8037851950339974 0.14485051391646264 C-2.4172210369324256 20.70192107139155, -7.830146370711708 103.43751355765386, -9.723144991083036 123.63970444975419" stroke="#000000" stroke-width="1" fill="none"></path></g><g transform="translate(400.874611225311 45.33984375) rotate(0 -5.79047694288289 61.89227748183533)"><path d="M-16.47395791170247 93.39311835098908 C-15.836407458360263 103.1023123052886, -11.692900407856877 110.62543460706758, -10.446713518111 124.26333628287537 M-16.89399503507711 93.78113593369619 C-15.881351292404647 102.56845980262419, -12.419529035687209 109.9595388355848, -9.265918387791107 124.42507195444776" stroke="#000000" stroke-width="1" fill="none"></path></g><g transform="translate(400.874611225311 45.33984375) rotate(0 -5.79047694288289 61.89227748183533)"><path d="M3.9859090996166024 94.97862907784557 C-1.466738257627049 104.2891319304868, -3.4135497734737754 111.34029293302667, -10.446713518111 124.26333628287537 M3.5658719762419615 95.36664666055268 C-0.8876201028116202 103.86652029180154, -2.880619964004832 110.83488499449516, -9.265918387791107 124.42507195444776" stroke="#000000" stroke-width="1" fill="none"></path></g></g><g transform="translate(184.2310791015625 17.64453125) rotate(0 60.5 12.5)"><text x="0" y="18" font-family="Virgil, Segoe UI Emoji" font-size="20px" fill="#000000" text-anchor="start" style="white-space: pre;" direction="ltr">home_planet</text></g><g><g transform="translate(245.17749444348738 56.1171875) rotate(0 32.00685334093913 48.65542968738824)"><path d="M-1.1743993688374756 0.9680668462067843 C9.487973090124774 17.28035457022488, 52.23056617981517 81.11667164452373, 62.91991655930965 96.88016137965023 M0.4099022331833839 0.4306979951262475 C11.542545404521274 16.47054280370474, 54.35072685642862 79.03269245237112, 65.18810605071573 95.0351010426879" stroke="#000000" stroke-width="1" fill="none"></path></g><g transform="translate(245.17749444348738 56.1171875) rotate(0 32.00685334093913 48.65542968738824)"><path d="M42.4479553982949 76.10769328751931 C46.73683503872869 80.13208236340006, 49.684616892524375 86.1198236282734, 63.53450309112756 93.96663876213134 M39.87098296120373 77.07118245956818 C48.093082582930265 84.00158396774552, 55.66289281407147 88.96228921640115, 64.98467052634894 94.99890433307738" stroke="#000000" stroke-width="1" fill="none"></path></g><g transform="translate(245.17749444348738 56.1171875) rotate(0 32.00685334093913 48.65542968738824)"><path d="M59.4063725676354 64.5520847143434 C60.00201397300151 70.86191604477547, 59.35223465690702 79.30106585103476, 63.53450309112756 93.96663876213134 M56.82940013054423 65.51557388639226 C59.85957170485227 76.03732479496769, 62.123724689108805 84.61334966668798, 64.98467052634894 94.99890433307738" stroke="#000000" stroke-width="1" fill="none"></path></g></g><g><g transform="translate(237.8756103515625 387.828125) rotate(0 19.18275528929661 -7.56342102214694)"><path d="M0.32903503105044374 -0.350016164034605 C6.961011611670257 -2.9213836900889874, 32.91136168166995 -12.424717234820127, 39.32287088558078 -14.776825880259276 M-0.9573603069875389 -1.5793785954918713 C5.589984252145513 -4.073055308898911, 32.084215508094054 -11.687661916753278, 38.56894201188348 -13.65748812242411" stroke="#000000" stroke-width="1" fill="none"></path></g></g><g transform="translate(309.931599934896 484.6165364583334) rotate(0 8 12.5)"><text x="0" y="18" font-family="Virgil, Segoe UI Emoji" font-size="20px" fill="#000000" text-anchor="start" style="white-space: pre;" direction="ltr">id</text></g><g><g transform="translate(330.9005669487847 485.80403645833337) rotate(0 29.9950179090103 -30.038445513890565)"><path d="M-1.0427860110998153 -1.1235417991876602 C9.058330942855953 -11.093790618468217, 50.96859757535994 -50.960105891470576, 61.032821829120394 -60.97788583868082 M0.6106126037333159 0.9009948108997197 C10.578881258245362 -8.799516456274457, 50.273925376179584 -49.46183252613131, 60.459527357031355 -59.65534804860029" stroke="#000000" stroke-width="1" fill="none"></path></g></g><g transform="translate(83.5045166015625 377.0234375) rotate(0 70 12.5)"><text x="0" y="18" font-family="Virgil, Segoe UI Emoji" font-size="20px" fill="#000000" text-anchor="start" style="white-space: pre;" direction="ltr">weaknesses []</text></g><g transform="translate(10 55.733062744140625) rotate(0 50.5 13)"><text x="0" y="18" font-family="Virgil, Segoe UI Emoji" font-size="20px" fill="#000000" text-anchor="start" style="white-space: pre;" direction="ltr">real_name</text></g><g transform="translate(394.0552978515625 288.1796875) rotate(0 46.5 13)"><text x="0" y="18" font-family="Virgil, Segoe UI Emoji" font-size="20px" fill="#000000" text-anchor="start" style="white-space: pre;" direction="ltr">superhero</text></g><g transform="translate(527.9927978515625 510.13671875) rotate(0 59.5 12.5)"><text x="0" y="18" font-family="Virgil, Segoe UI Emoji" font-size="20px" fill="#000000" text-anchor="start" style="white-space: pre;" direction="ltr">origin_story</text></g><g><g transform="translate(196.8677978515625 494.00390625) rotate(0 38.99887018666601 -27.548567636837248)"><path d="M0.45497026741504665 -0.5302216082811355 C13.262946004668873 -10.059971128900845, 63.48607524534067 -47.49464466075102, 76.43290291130543 -56.90294337570667 M-0.7653090715315194 1.8058081020321697 C12.467318967093403 -7.582701934336994, 65.65507752081689 -45.975805147547895, 78.76304944486357 -55.59962199048139" stroke="#000000" stroke-width="1" fill="none"></path></g></g><g transform="translate(172.8677978515625 493.99609375) rotate(0 15 12.5)"><text x="0" y="18" font-family="Virgil, Segoe UI Emoji" font-size="20px" fill="#000000" text-anchor="start" style="white-space: pre;" direction="ltr"> []</text></g><g transform="translate(645.8951416015625 123.984375) rotate(0 17 12.5)"><text x="0" y="18" font-family="Virgil, Segoe UI Emoji" font-size="20px" fill="#000000" text-anchor="start" style="white-space: pre;" direction="ltr">age</text></g><g transform="translate(685.2076416015625 208.015625) rotate(0 52.5 12.5)"><text x="0" y="18" font-family="Virgil, Segoe UI Emoji" font-size="20px" fill="#000000" text-anchor="start" style="white-space: pre;" direction="ltr">hero_name</text></g></svg>